<svg version="1.1" id="Layer_1" xmlns="http://www.w3.org/2000/svg" xmlns:xlink="http://www.w3.org/1999/xlink" x="0px" y="0px"
	 width="100%" viewBox="0 0 713 713" enable-background="new 0 0 713 713" xml:space="preserve">
<path fill="#000000" opacity="1.000000" stroke="none" 
	d="
M294.452271,526.950684 
	C293.055542,514.768860 285.908569,508.378418 274.120087,508.372162 
	C246.957382,508.357788 219.794388,508.430298 192.632156,508.314148 
	C182.676895,508.271576 175.317825,502.171539 174.085846,493.478607 
	C172.603912,483.022003 180.483612,473.886963 191.590439,473.698242 
	C205.584686,473.460419 219.586868,473.716614 233.582596,473.530518 
	C243.246613,473.402039 250.472092,466.840973 251.745255,457.521027 
	C252.877411,449.233307 247.141434,440.491882 238.575928,438.088501 
	C235.761307,437.298798 232.653778,437.364258 229.679733,437.360046 
	C189.019302,437.302399 148.358047,437.409393 107.699371,437.131256 
	C103.261887,437.100891 98.365685,435.762360 94.515770,433.568146 
	C88.083130,429.901855 85.683983,421.943726 87.776299,415.305237 
	C90.175644,407.692596 96.789215,402.726410 105.078560,402.709137 
	C134.240509,402.648407 163.402664,402.695801 192.564743,402.697083 
	C199.396896,402.697388 206.230591,402.765991 213.060852,402.647034 
	C224.233414,402.452423 232.139816,394.762634 232.007278,384.371735 
	C231.876984,374.157043 223.658813,366.409149 212.695435,366.392761 
	C176.534195,366.338654 140.372772,366.387054 104.211548,366.321991 
	C95.585571,366.306458 89.017723,361.353485 86.621910,353.435181 
	C84.511787,346.461121 87.273987,338.071808 93.960983,334.411407 
	C97.558563,332.442139 102.134720,331.432037 106.275917,331.412933 
	C146.435608,331.227356 186.596680,331.348450 226.757370,331.371033 
	C238.713043,331.377747 247.099396,326.075348 250.811539,316.210999 
	C256.279968,301.679626 245.712448,285.841705 229.682114,284.792358 
	C224.371048,284.444733 219.017731,284.802582 213.690811,284.625214 
	C201.348267,284.214233 193.078857,273.097565 197.088516,262.442474 
	C199.751312,255.366440 206.490845,250.744247 214.640198,250.719604 
	C234.303513,250.660126 253.967453,250.783691 273.630554,250.699478 
	C285.383545,250.649155 294.064301,244.288895 296.933899,233.957016 
	C301.012451,219.272263 290.320923,204.458054 274.813568,203.869034 
	C263.496887,203.439194 252.154099,203.638092 240.823227,203.666321 
	C235.451172,203.679703 230.563965,202.432007 226.536438,198.758026 
	C221.234848,193.921753 219.468796,187.177628 221.766937,181.118668 
	C224.531952,173.828857 230.677795,169.283127 238.592194,169.243103 
	C263.252808,169.118393 287.914185,169.133392 312.575287,169.135757 
	C326.904846,169.137131 341.237885,169.036224 355.563141,169.308014 
	C374.757874,169.672241 392.029633,185.498596 393.020203,204.743668 
	C393.952789,222.861481 393.457306,241.053375 393.566711,259.212830 
	C393.657043,274.209869 393.710968,289.207092 393.790131,304.204224 
	C393.794983,305.124054 393.879944,306.043488 393.927856,306.967133 
	C403.520691,297.609741 412.971008,288.576324 422.217255,279.338593 
	C453.806335,247.778519 485.337708,216.160599 516.859924,184.533676 
	C526.853638,174.506760 538.567566,169.124069 553.015137,169.224930 
	C595.172607,169.519287 637.332642,169.444351 679.491699,169.513611 
	C681.275757,169.516541 683.059875,169.513992 684.843933,169.513992 
	C685.203674,170.079163 685.563354,170.644333 685.923035,171.209488 
	C682.670654,174.012146 679.219604,176.616516 676.195068,179.646530 
	C607.101624,248.865982 538.068909,318.146057 468.990051,387.380096 
	C449.337341,407.076965 429.615906,426.705688 409.848114,446.287048 
	C398.899078,457.132843 393.036713,469.852631 393.419769,485.557037 
	C393.830078,502.377136 393.670105,519.216736 393.477570,536.044617 
	C393.234161,557.319946 382.405121,572.518311 364.078461,577.556396 
	C361.392609,578.294739 358.493652,578.530518 355.692413,578.535706 
	C316.865723,578.607544 278.038879,578.619934 239.212067,578.594482 
	C229.185364,578.587891 222.035980,572.684509 220.953140,563.744751 
	C219.755142,553.854126 227.651886,544.726135 238.053543,544.485413 
	C250.545639,544.196289 263.048859,544.414856 275.543488,544.197693 
	C286.153381,544.013367 293.121643,537.669189 294.452271,526.950684 
	z"/>
<path fill="#000000" opacity="1.000000" stroke="none" 
	d="
M493.118378,421.072327 
	C508.392120,411.198059 522.075073,412.742126 535.751404,426.146851 
	C551.332397,441.418457 566.677734,456.931061 582.078796,472.385468 
	C615.938660,506.362610 649.770081,540.367920 683.605530,574.369385 
	C684.510498,575.278748 685.327759,576.275391 686.789612,577.903809 
	C684.506531,578.077271 682.966736,578.292908 681.426331,578.296814 
	C637.109131,578.409180 592.790894,578.361633 548.475342,578.685120 
	C536.320923,578.773804 526.289978,574.385254 517.918213,566.157043 
	C496.533508,545.139282 475.163483,524.097168 454.228333,502.634857 
	C442.014130,490.113098 441.684143,472.823090 453.723999,459.874268 
	C466.182922,446.474640 479.741852,434.097778 493.118378,421.072327 
	z"/>
</svg>
